<svg xmlns="http://www.w3.org/2000/svg" viewBox="0 0 64 64">
  <defs>
    <linearGradient id="g" x1="0" y1="0" x2="1" y2="1">
      <stop offset="0%" stop-color="#c8e6c0"/>
      <stop offset="100%" stop-color="#2f6b3c"/>
    </linearGradient>
  </defs>
  <rect width="64" height="64" fill="url(#g)"/>
  <circle cx="32" cy="32" r="24" fill="none" stroke="#1e4e2d" stroke-width="4"/>
  <path d="M14 44c6-6 30-6 36 0v6H14z" fill="#f5f1e6"/>
  <!-- person left -->
  <circle cx="24" cy="28" r="3" fill="#f5f1e6"/>
  <path d="M24 32v7M24 34l-4 4M24 34l4 3M24 39l-3 5M24 39l4 4" stroke="#f5f1e6" stroke-width="2" stroke-linecap="round" fill="none"/>
  <!-- bike right -->
  <circle cx="40" cy="42" r="4" fill="none" stroke="#f5f1e6" stroke-width="2"/>
  <circle cx="50" cy="42" r="4" fill="none" stroke="#f5f1e6" stroke-width="2"/>
  <path d="M40 42l4-6h4l2 6M44 36l4-5M48 31h5" stroke="#f5f1e6" stroke-width="2" stroke-linecap="round" fill="none"/>
</svg>
